<?xml version="1.0" encoding="UTF-8" standalone="no"?>
<!-- Uploaded to: SVG Repo, www.svgrepo.com, Generator: SVG Repo Mixer Tools -->

<svg
   version="1.0"
   id="Layer_1"
   width="700"
   height="800"
   viewBox="0 0 56 64"
   enable-background="new 0 0 64 64"
   xml:space="preserve"
   sodipodi:docname="file.svg"
   inkscape:export-filename="file.svg"
   inkscape:export-xdpi="1.92"
   inkscape:export-ydpi="1.92"
   inkscape:version="1.3 (0e150ed, 2023-07-21)"
   xmlns:inkscape="http://www.inkscape.org/namespaces/inkscape"
   xmlns:sodipodi="http://sodipodi.sourceforge.net/DTD/sodipodi-0.dtd"
   xmlns="http://www.w3.org/2000/svg"
   xmlns:svg="http://www.w3.org/2000/svg"><defs
   id="defs8" /><sodipodi:namedview
   id="namedview8"
   pagecolor="#ffffff"
   bordercolor="#000000"
   borderopacity="0.25"
   inkscape:showpageshadow="2"
   inkscape:pageopacity="0.0"
   inkscape:pagecheckerboard="0"
   inkscape:deskcolor="#d1d1d1"
   inkscape:zoom="1.685"
   inkscape:cx="400"
   inkscape:cy="400"
   inkscape:current-layer="Layer_1" />&#10;<g
   id="g8"
   transform="translate(-4)">&#10;	<g
   id="g1">&#10;		<polygon
   fill="#f9ebb2"
   points="56.586,14 46,3.414 46,14 "
   id="polygon1" />&#10;		<path
   fill="#f9ebb2"
   d="m 45,16 c -0.553,0 -1,-0.447 -1,-1 V 2 H 8 C 6.896,2 6,2.896 6,4 v 56 c 0,1.104 0.896,2 2,2 h 48 c 1.104,0 2,-0.896 2,-2 V 16 Z"
   id="path1" />&#10;	</g>&#10;	<path
   fill="#394240"
   d="m 14,26 c 0,0.553 0.447,1 1,1 h 34 c 0.553,0 1,-0.447 1,-1 0,-0.553 -0.447,-1 -1,-1 H 15 c -0.553,0 -1,0.447 -1,1 z"
   id="path2" />&#10;	<path
   fill="#394240"
   d="M 49,37 H 15 c -0.553,0 -1,0.447 -1,1 0,0.553 0.447,1 1,1 h 34 c 0.553,0 1,-0.447 1,-1 0,-0.553 -0.447,-1 -1,-1 z"
   id="path3" />&#10;	<path
   fill="#394240"
   d="M 49,43 H 15 c -0.553,0 -1,0.447 -1,1 0,0.553 0.447,1 1,1 h 34 c 0.553,0 1,-0.447 1,-1 0,-0.553 -0.447,-1 -1,-1 z"
   id="path4" />&#10;	<path
   fill="#394240"
   d="M 49,49 H 15 c -0.553,0 -1,0.447 -1,1 0,0.553 0.447,1 1,1 h 34 c 0.553,0 1,-0.447 1,-1 0,-0.553 -0.447,-1 -1,-1 z"
   id="path5" />&#10;	<path
   fill="#394240"
   d="M 49,31 H 15 c -0.553,0 -1,0.447 -1,1 0,0.553 0.447,1 1,1 h 34 c 0.553,0 1,-0.447 1,-1 0,-0.553 -0.447,-1 -1,-1 z"
   id="path6" />&#10;	<path
   fill="#394240"
   d="m 15,20 h 16 c 0.553,0 1,-0.447 1,-1 0,-0.553 -0.447,-1 -1,-1 H 15 c -0.553,0 -1,0.447 -1,1 0,0.553 0.447,1 1,1 z"
   id="path7" />&#10;	<path
   fill="#394240"
   d="M 59.706,14.292 45.708,0.294 C 45.527,0.112 45.277,0 45,0 H 8 C 5.789,0 4,1.789 4,4 v 56 c 0,2.211 1.789,4 4,4 h 48 c 2.211,0 4,-1.789 4,-4 V 15 c 0,-0.277 -0.112,-0.527 -0.294,-0.708 z M 46,3.414 56.586,14 H 46 Z M 58,60 c 0,1.104 -0.896,2 -2,2 H 8 C 6.896,62 6,61.104 6,60 V 4 C 6,2.896 6.896,2 8,2 h 36 v 13 c 0,0.553 0.447,1 1,1 h 13 z"
   id="path8" />&#10;	<polygon
   opacity="0.15"
   fill="#231f20"
   points="46,14 46,3.414 56.586,14 "
   id="polygon8" />&#10;</g>&#10;</svg>
